<?xml version="1.0" encoding="UTF-8" standalone="no"?>
<!DOCTYPE svg PUBLIC "-//W3C//DTD SVG 1.1//EN" "http://www.w3.org/Graphics/SVG/1.1/DTD/svg11.dtd">
<svg width="100%" height="100%" viewBox="0 0 300 75" version="1.1" xmlns="http://www.w3.org/2000/svg" xmlns:xlink="http://www.w3.org/1999/xlink" xml:space="preserve" xmlns:serif="http://www.serif.com/" style="fill-rule:evenodd;clip-rule:evenodd;stroke-linecap:round;stroke-linejoin:round;stroke-miterlimit:1.5;">
    <g transform="matrix(0.355023,0,0,0.42107,0.0401046,0.869885)">
        <path d="M101.066,29.812L98.934,29.768C57.644,29.768 24.121,57.172 24.121,90.927C24.121,124.682 57.644,152.087 98.934,152.087L101.066,152.043L101.066,176.405L0.112,176.405L0.112,-0.054L101.066,-0.054L101.066,29.812Z" style="fill:white;stroke:white;stroke-width:2.57px;"/>
    </g>
    <g transform="matrix(0.428235,0,0,0.41521,6.48214,70.4487)">
        <path d="M68.744,-137.343C102.162,-136.424 129,-109.004 129,-75.364C129,-41.725 102.162,-14.305 68.744,-13.386L68.744,-137.343Z" style="fill:white;stroke:white;stroke-width:2.37px;"/>
    </g>
    <g transform="matrix(1,0,0,1,-92.84,-13.8743)">
        <text x="157.105px" y="69.456px" style="font-family:'Avenir-Black', 'Avenir', sans-serif;font-weight:800;font-size:48px;fill:white;stroke:white;stroke-width:1px;stroke-linecap:butt;stroke-miterlimit:2;">logoipsum</text>
    </g>
    <g transform="matrix(0.398786,0,0,0.398786,4.72256,68.0996)">
        <circle cx="723.833" cy="-122.523" r="12.199" style="fill:white;stroke:white;stroke-width:2.51px;"/>
    </g>
</svg>
