<?xml version="1.0" encoding="UTF-8" standalone="no"?>
<!DOCTYPE svg PUBLIC "-//W3C//DTD SVG 1.1//EN" "http://www.w3.org/Graphics/SVG/1.1/DTD/svg11.dtd">
<svg width="100%" height="100%" viewBox="0 0 2560 1440" version="1.1" xmlns="http://www.w3.org/2000/svg" xmlns:xlink="http://www.w3.org/1999/xlink" xml:space="preserve" xmlns:serif="http://www.serif.com/" style="fill-rule:evenodd;clip-rule:evenodd;stroke-linecap:round;stroke-linejoin:round;stroke-miterlimit:1.5;">
    <g transform="matrix(2.10325,0,0,2.10325,47.5446,-206.684)">
        <g transform="matrix(1,0,0,1,-64.3507,-182.989)">
            <path d="M561.708,-225.968L-333.593,662.89" style="fill:none;stroke:rgb(190,205,248);stroke-width:0.48px;"/>
        </g>
        <g transform="matrix(1,0,0,1,16.501,-118.544)">
            <path d="M561.708,-225.968L-333.593,662.89" style="fill:none;stroke:rgb(190,205,248);stroke-width:0.48px;"/>
        </g>
        <g transform="matrix(1,0,0,1,53.8008,-90.881)">
            <path d="M561.708,-225.968L-333.593,662.89" style="fill:none;stroke:rgb(190,205,248);stroke-width:0.48px;"/>
        </g>
        <g transform="matrix(1,0,0,1,-21.8515,-159.015)">
            <path d="M561.708,-225.968L-333.593,662.89" style="fill:none;stroke:rgb(190,205,248);stroke-width:0.48px;"/>
        </g>
        <g transform="matrix(1,0,0,1,141.67,-39.0187)">
            <path d="M561.708,-225.968L-333.593,662.89" style="fill:none;stroke:rgb(190,205,248);stroke-width:0.48px;"/>
        </g>
        <g transform="matrix(1,0,0,1,241.788,20.4921)">
            <path d="M561.708,-225.968L-333.593,662.89" style="fill:none;stroke:rgb(190,205,248);stroke-width:0.48px;"/>
        </g>
        <g transform="matrix(1,0,0,1,281.2,145.466)">
            <path d="M561.708,-225.968L-333.593,662.89" style="fill:none;stroke:rgb(190,205,248);stroke-width:0.48px;"/>
        </g>
        <g transform="matrix(1,0,0,1,388.141,192.818)">
            <path d="M561.708,-225.968L-333.593,662.89" style="fill:none;stroke:rgb(190,205,248);stroke-width:0.48px;"/>
        </g>
        <g transform="matrix(1,0,0,1,512.822,225.673)">
            <path d="M561.708,-225.968L-333.593,662.89" style="fill:none;stroke:rgb(190,205,248);stroke-width:0.48px;"/>
        </g>
        <g transform="matrix(1,0,0,1,680.152,237.578)">
            <path d="M561.708,-225.968L-333.593,662.89" style="fill:none;stroke:rgb(190,205,248);stroke-width:0.48px;"/>
        </g>
        <g transform="matrix(1,0,0,1,808.505,296.413)">
            <path d="M561.708,-225.968L-333.593,662.89" style="fill:none;stroke:rgb(190,205,248);stroke-width:0.48px;"/>
        </g>
        <g transform="matrix(1,0,0,1,939.34,365.97)">
            <path d="M561.708,-225.968L-333.593,662.89" style="fill:none;stroke:rgb(190,205,248);stroke-width:0.48px;"/>
        </g>
        <g transform="matrix(1,0,0,1,1077.12,413.693)">
            <path d="M561.708,-225.968L-333.593,662.89" style="fill:none;stroke:rgb(190,205,248);stroke-width:0.48px;"/>
        </g>
        <g transform="matrix(1,0,0,1,97.0911,-69.331)">
            <path d="M561.708,-225.968L-333.593,662.89" style="fill:none;stroke:rgb(190,205,248);stroke-width:0.48px;"/>
        </g>
        <g transform="matrix(1,0,0,1,187.536,-10.8114)">
            <path d="M561.708,-225.968L-333.593,662.89" style="fill:none;stroke:rgb(190,205,248);stroke-width:0.48px;"/>
        </g>
        <g transform="matrix(1,0,0,1,268.48,71.6445)">
            <path d="M561.708,-225.968L-333.593,662.89" style="fill:none;stroke:rgb(190,205,248);stroke-width:0.48px;"/>
        </g>
        <g transform="matrix(1,0,0,1,328.205,177.313)">
            <path d="M561.708,-225.968L-333.593,662.89" style="fill:none;stroke:rgb(190,205,248);stroke-width:0.48px;"/>
        </g>
        <g transform="matrix(1,0,0,1,442.905,207.149)">
            <path d="M561.708,-225.968L-333.593,662.89" style="fill:none;stroke:rgb(190,205,248);stroke-width:0.48px;"/>
        </g>
        <g transform="matrix(1,0,0,1,602.933,213.651)">
            <path d="M561.708,-225.968L-333.593,662.89" style="fill:none;stroke:rgb(190,205,248);stroke-width:0.48px;"/>
        </g>
        <g transform="matrix(1,0,0,1,777.063,236.824)">
            <path d="M561.708,-225.968L-333.593,662.89" style="fill:none;stroke:rgb(190,205,248);stroke-width:0.48px;"/>
        </g>
        <g transform="matrix(1,0,0,1,895.884,301.566)">
            <path d="M561.708,-225.968L-333.593,662.89" style="fill:none;stroke:rgb(190,205,248);stroke-width:0.48px;"/>
        </g>
        <g transform="matrix(1,0,0,1,1002.07,395.461)">
            <path d="M561.708,-225.968L-333.593,662.89" style="fill:none;stroke:rgb(190,205,248);stroke-width:0.48px;"/>
        </g>
        <g transform="matrix(1,0,0,1,1119.04,478.064)">
            <path d="M561.708,-225.968L-333.593,662.89" style="fill:none;stroke:rgb(190,205,248);stroke-width:0.48px;"/>
        </g>
    </g>
</svg>
