<?xml version="1.0" encoding="UTF-8" standalone="no"?>
<!DOCTYPE svg PUBLIC "-//W3C//DTD SVG 1.1//EN" "http://www.w3.org/Graphics/SVG/1.1/DTD/svg11.dtd">
<svg width="100%" height="100%" viewBox="0 0 100 100" version="1.1" xmlns="http://www.w3.org/2000/svg" xmlns:xlink="http://www.w3.org/1999/xlink" xml:space="preserve" xmlns:serif="http://www.serif.com/" style="fill-rule:evenodd;clip-rule:evenodd;stroke-linecap:round;stroke-linejoin:round;stroke-miterlimit:1.5;">
    <g transform="matrix(1,0,0,0.984618,0,0.413571)">
        <ellipse cx="49.885" cy="50.163" rx="49.184" ry="49.404" style="fill:none;stroke:white;stroke-opacity:0.5;stroke-width:2.02px;"/>
    </g>
    <g transform="matrix(1,0,0,1,2.06161,2.13849)">
        <g transform="matrix(1.0946,0,0,0.586132,-4.33359,19.6614)">
            <path d="M34.432,14.377C34.496,14.818 34.26,52.386 34.26,52.386" style="fill:none;stroke:white;stroke-width:5.69px;"/>
        </g>
        <g transform="matrix(0.541198,0,0,0.563879,-3.90462,21.1708)">
            <ellipse cx="69.193" cy="69.409" rx="12.765" ry="13.072" style="fill:none;stroke:white;stroke-width:9.05px;"/>
        </g>
        <g transform="matrix(0.579624,0,0,0.563879,30.5056,3.82792)">
            <ellipse cx="69.193" cy="69.409" rx="12.765" ry="13.072" style="fill:none;stroke:white;stroke-width:8.74px;"/>
        </g>
        <g transform="matrix(0.940794,-0.256212,0.235669,0.865361,-12.8837,20.994)">
            <path d="M40.532,61.442C40.532,61.442 48.443,66.208 57.056,65.024C62.247,64.31 67.731,60.443 71.786,54.873" style="fill:none;stroke:white;stroke-width:5.34px;"/>
        </g>
    </g>
</svg>
