<?xml version="1.0" encoding="UTF-8" standalone="no"?>
<!DOCTYPE svg PUBLIC "-//W3C//DTD SVG 1.1//EN" "http://www.w3.org/Graphics/SVG/1.1/DTD/svg11.dtd">
<svg width="100%" height="100%" viewBox="0 0 300 60" version="1.1" xmlns="http://www.w3.org/2000/svg" xmlns:xlink="http://www.w3.org/1999/xlink" xml:space="preserve" xmlns:serif="http://www.serif.com/" style="fill-rule:evenodd;clip-rule:evenodd;stroke-linejoin:round;stroke-miterlimit:2;">
    <g transform="matrix(1.12423,0,0,1.11405,-7.59209,-7.21287)">
        <path d="M33.552,6.389L39.543,24.996L58.931,24.996L43.246,36.496L49.237,55.103L33.552,43.603L17.867,55.103L23.858,36.496L8.173,24.996L27.561,24.996L33.552,6.389Z" style="fill:rgb(50,97,233);"/>
    </g>
    <g transform="matrix(1.12423,0,0,1.11405,-7.59209,-7.21287)">
        <path d="M33.552,6.389L39.543,24.996L58.931,24.996L43.246,36.496L49.237,55.103L33.552,43.603L17.867,55.103L23.858,36.496L8.173,24.996L27.561,24.996L33.552,6.389Z" style="fill:rgb(50,97,233);"/>
    </g>
    <g transform="matrix(1.12423,0,0,1.11405,52.4663,-7.0652)">
        <path d="M33.552,6.389L39.543,24.996L58.931,24.996L43.246,36.496L49.237,55.103L33.552,43.603L17.867,55.103L23.858,36.496L8.173,24.996L27.561,24.996L33.552,6.389Z" style="fill:rgb(50,97,233);"/>
    </g>
    <g transform="matrix(1.12423,0,0,1.11405,111.211,-7.24475)">
        <path d="M33.552,6.389L39.543,24.996L58.931,24.996L43.246,36.496L49.237,55.103L33.552,43.603L17.867,55.103L23.858,36.496L8.173,24.996L27.561,24.996L33.552,6.389Z" style="fill:rgb(50,97,233);"/>
    </g>
    <g transform="matrix(1.12423,0,0,1.11405,171.27,-7.09708)">
        <path d="M33.552,6.389L39.543,24.996L58.931,24.996L43.246,36.496L49.237,55.103L33.552,43.603L17.867,55.103L23.858,36.496L8.173,24.996L27.561,24.996L33.552,6.389Z" style="fill:rgb(50,97,233);"/>
    </g>
    <g transform="matrix(1.12423,0,0,1.11405,232.093,-7.08797)">
        <path d="M33.552,6.389L39.543,24.996L58.931,24.996L43.246,36.496L49.237,55.103L33.552,43.603L17.867,55.103L23.858,36.496L8.173,24.996L27.561,24.996L33.552,6.389Z" style="fill:rgb(50,97,233);"/>
    </g>
</svg>
