<?xml version="1.0" encoding="UTF-8" standalone="no"?>
<!DOCTYPE svg PUBLIC "-//W3C//DTD SVG 1.1//EN" "http://www.w3.org/Graphics/SVG/1.1/DTD/svg11.dtd">
<svg width="100%" height="100%" viewBox="0 0 100 100" version="1.1" xmlns="http://www.w3.org/2000/svg" xmlns:xlink="http://www.w3.org/1999/xlink" xml:space="preserve" xmlns:serif="http://www.serif.com/" style="fill-rule:evenodd;clip-rule:evenodd;stroke-linejoin:round;stroke-miterlimit:2;">
    <path d="M57.79,15.515C54.17,15.916 51.369,18.851 51.369,22.404C51.369,26.255 54.66,29.381 58.714,29.381C60.661,29.381 62.432,28.66 63.736,27.471L84.572,69.372C81.447,70.3 79.183,73.185 79.183,76.591C79.183,80.784 82.615,84.189 86.842,84.189C88.483,84.189 90.005,83.675 91.245,82.79L99.916,100.226L0.035,100.226L25.225,49.571C27.153,50.938 29.526,51.73 32.089,51.73C38.641,51.73 43.961,46.549 43.961,40.168C43.961,34.91 40.349,30.467 35.396,29.119L49.975,-0.199L57.79,15.515ZM44.998,75.218C40.943,75.218 37.652,72.092 37.652,68.241C37.652,64.39 40.943,61.264 44.998,61.264C45.982,61.264 46.921,61.448 47.777,61.789L48.171,61.975L48.963,62.383L49.377,62.67L50.009,63.166L50.383,63.529L50.894,64.118L51.2,64.537L51.594,65.226L51.813,65.673L52.085,66.502L52.202,66.915L52.343,68.241L52.202,69.567L52.085,69.979L51.813,70.809L51.594,71.256L51.2,71.945L50.894,72.363L50.383,72.952L50.009,73.315L49.377,73.811L48.963,74.098L48.171,74.506L47.777,74.692L46.477,75.076L44.998,75.218Z" style="fill:rgb(255,237,129);"/>
    <path d="M21.22,93.753L21.138,93.778L21.549,93.575L21.22,93.753Z" style="fill:rgb(255,237,129);"/>
    <path d="M22.521,93.052L22.374,93.131L22.806,92.818L22.521,93.052Z" style="fill:rgb(255,237,129);"/>
    <path d="M23.654,92.124L23.465,92.278L23.855,91.883L23.654,92.124Z" style="fill:rgb(255,237,129);"/>
    <path d="M24.59,90.999L24.388,91.242L24.707,90.786L24.59,90.999Z" style="fill:rgb(255,237,129);"/>
    <path d="M25.296,89.709L25.117,90.035L25.346,89.549L25.296,89.709Z" style="fill:rgb(255,237,129);"/>
    <path d="M25.743,88.283L25.629,88.646L25.752,88.196L25.743,88.283Z" style="fill:rgb(255,237,129);"/>
    <path d="M25.743,85.222L25.752,85.308L25.629,84.859L25.743,85.222Z" style="fill:rgb(255,237,129);"/>
    <path d="M25.296,83.796L25.346,83.956L25.117,83.469L25.296,83.796Z" style="fill:rgb(255,237,129);"/>
    <path d="M24.59,82.506L24.707,82.719L24.388,82.263L24.59,82.506Z" style="fill:rgb(255,237,129);"/>
    <path d="M23.654,81.381L23.855,81.622L23.465,81.226L23.654,81.381Z" style="fill:rgb(255,237,129);"/>
    <path d="M22.521,80.453L22.806,80.686L22.374,80.374L22.521,80.453Z" style="fill:rgb(255,237,129);"/>
    <path d="M21.22,79.752L21.549,79.93L21.138,79.727L21.22,79.752Z" style="fill:rgb(255,237,129);"/>
    <path d="M21.047,93.823L19.783,94.196L21.138,93.778L21.047,93.823Z" style="fill:rgb(255,237,129);"/>
    <path d="M22.21,93.249L21.549,93.575L22.374,93.131L22.21,93.249Z" style="fill:rgb(255,237,129);"/>
    <path d="M23.251,92.496L22.806,92.818L23.465,92.278L23.251,92.496Z" style="fill:rgb(255,237,129);"/>
    <path d="M24.149,91.584L23.855,91.883L24.388,91.242L24.149,91.584Z" style="fill:rgb(255,237,129);"/>
    <path d="M24.883,90.533L24.707,90.786L25.117,90.035L24.883,90.533Z" style="fill:rgb(255,237,129);"/>
    <path d="M25.434,89.364L25.346,89.549L25.629,88.646L25.434,89.364Z" style="fill:rgb(255,237,129);"/>
    <path d="M25.752,85.308L25.899,86.752L25.752,88.196C25.851,87.73 25.899,87.247 25.899,86.752C25.899,86.258 25.851,85.775 25.752,85.308Z" style="fill:rgb(255,237,129);"/>
    <path d="M25.434,84.141L25.629,84.859L25.346,83.956L25.434,84.141Z" style="fill:rgb(255,237,129);"/>
    <path d="M24.883,82.972L25.117,83.469L24.707,82.719L24.883,82.972Z" style="fill:rgb(255,237,129);"/>
    <path d="M24.149,81.921L24.388,82.263L23.855,81.622L24.149,81.921Z" style="fill:rgb(255,237,129);"/>
    <path d="M23.251,81.008L23.465,81.226L22.806,80.686L23.251,81.008Z" style="fill:rgb(255,237,129);"/>
    <path d="M22.21,80.255L22.374,80.374L21.549,79.93L22.21,80.255Z" style="fill:rgb(255,237,129);"/>
    <path d="M21.138,79.727L19.783,79.309L21.047,79.682L21.138,79.727Z" style="fill:rgb(255,237,129);"/>
    <path d="M47.856,74.669L47.777,74.692L48.171,74.506L47.856,74.669Z" style="fill:rgb(255,237,129);"/>
    <path d="M49.103,74.026L48.963,74.098L49.377,73.811L49.103,74.026Z" style="fill:rgb(255,237,129);"/>
    <path d="M50.191,73.173L50.009,73.315L50.383,72.952L50.191,73.173Z" style="fill:rgb(255,237,129);"/>
    <path d="M51.088,72.141L50.894,72.363L51.2,71.945L51.088,72.141Z" style="fill:rgb(255,237,129);"/>
    <path d="M51.766,70.955L51.594,71.256L51.813,70.809L51.766,70.955Z" style="fill:rgb(255,237,129);"/>
    <path d="M52.194,69.646L52.085,69.979L52.202,69.567L52.194,69.646Z" style="fill:rgb(255,237,129);"/>
    <path d="M52.194,66.835L52.202,66.915L52.085,66.502L52.194,66.835Z" style="fill:rgb(255,237,129);"/>
    <path d="M51.766,65.526L51.813,65.673L51.594,65.226L51.766,65.526Z" style="fill:rgb(255,237,129);"/>
    <path d="M51.088,64.341L51.2,64.537L50.894,64.118L51.088,64.341Z" style="fill:rgb(255,237,129);"/>
    <path d="M50.191,63.308L50.383,63.529L50.009,63.166L50.191,63.308Z" style="fill:rgb(255,237,129);"/>
    <path d="M49.103,62.456L49.377,62.67L48.963,62.383L49.103,62.456Z" style="fill:rgb(255,237,129);"/>
    <path d="M47.856,61.812L48.171,61.975L47.777,61.789L47.856,61.812Z" style="fill:rgb(255,237,129);"/>
    <path d="M47.69,74.734L46.477,75.076L47.777,74.692L47.69,74.734Z" style="fill:rgb(255,237,129);"/>
    <path d="M48.805,74.207L48.171,74.506L48.963,74.098L48.805,74.207Z" style="fill:rgb(255,237,129);"/>
    <path d="M49.804,73.516L49.377,73.811L50.009,73.315L49.804,73.516Z" style="fill:rgb(255,237,129);"/>
    <path d="M50.665,72.678L50.383,72.952L50.894,72.363L50.665,72.678Z" style="fill:rgb(255,237,129);"/>
    <path d="M51.369,71.713L51.2,71.945L51.594,71.256L51.369,71.713Z" style="fill:rgb(255,237,129);"/>
    <path d="M51.897,70.639L51.813,70.809L52.085,69.979L51.897,70.639Z" style="fill:rgb(255,237,129);"/>
    <path d="M52.202,66.915C52.297,67.343 52.343,67.787 52.343,68.241C52.343,68.695 52.297,69.138 52.202,69.567L52.343,68.241L52.202,66.915Z" style="fill:rgb(255,237,129);"/>
    <path d="M51.897,65.843L52.085,66.502L51.813,65.673L51.897,65.843Z" style="fill:rgb(255,237,129);"/>
    <path d="M51.369,64.769L51.594,65.226L51.2,64.537L51.369,64.769Z" style="fill:rgb(255,237,129);"/>
    <path d="M50.665,63.804L50.894,64.118L50.383,63.529L50.665,63.804Z" style="fill:rgb(255,237,129);"/>
    <path d="M49.804,62.966L50.009,63.166L49.377,62.67L49.804,62.966Z" style="fill:rgb(255,237,129);"/>
    <path d="M48.805,62.274L48.963,62.383L48.171,61.975L48.805,62.274Z" style="fill:rgb(255,237,129);"/>
    <path d="M47.777,61.789L46.477,61.405L47.69,61.748L47.777,61.789Z" style="fill:rgb(255,237,129);"/>
    <g transform="matrix(0.64502,0,0,0.657137,-2.70284,59.1858)">
        <ellipse cx="32.44" cy="40.013" rx="11.873" ry="11.562" style="fill:none;"/>
    </g>
    <g transform="matrix(1,0,0,1,-0.351506,0.154776)">
        <path d="M25.576,49.417C22.54,47.34 20.567,43.899 20.567,40.013C20.567,33.632 25.887,28.452 32.44,28.452C33.593,28.452 34.708,28.612 35.747,28.964L25.576,49.417Z" style="fill:none;"/>
    </g>
    <g transform="matrix(1,0,0,1,-0.351506,0.154776)">
        <path d="M35.747,28.964C40.701,30.312 44.313,34.755 44.313,40.013C44.313,46.394 38.993,51.575 32.44,51.575C29.878,51.575 27.504,50.783 25.576,49.417L35.747,28.964Z" style="fill:none;"/>
    </g>
    <g transform="matrix(0.618685,0,0,0.603467,19.9564,48.3551)">
        <ellipse cx="32.44" cy="40.013" rx="11.873" ry="11.562" style="fill:none;"/>
    </g>
    <g transform="matrix(0.618685,0,0,0.603467,38.6441,-1.74295)">
        <path d="M30.946,28.599L32.44,28.452C38.993,28.452 44.313,33.632 44.313,40.013C44.313,43.33 42.876,46.323 40.556,48.41L30.946,28.599Z" style="fill:none;"/>
    </g>
    <g transform="matrix(0.618685,0,0,0.603467,38.6441,-1.74295)">
        <path d="M30.946,28.599L40.556,48.41C38.449,50.381 35.587,51.575 32.44,51.575C25.887,51.575 20.567,46.394 20.567,40.013C20.567,34.127 25.094,29.262 30.946,28.599Z" style="fill:none;"/>
    </g>
    <g transform="matrix(0.64502,0,0,0.657137,65.9173,50.2967)">
        <path d="M28.922,29.028C30.022,28.634 31.209,28.452 32.44,28.452C38.993,28.452 44.313,33.632 44.313,40.013C44.313,43.916 42.323,47.37 39.267,49.446L28.922,29.028Z" style="fill:none;"/>
    </g>
    <g transform="matrix(0.64502,0,0,0.657137,65.9173,50.2967)">
        <path d="M28.922,29.028L39.267,49.446C37.344,50.794 34.985,51.575 32.44,51.575C25.887,51.575 20.567,46.394 20.567,40.013C20.567,34.831 24.077,30.44 28.922,29.028Z" style="fill:none;"/>
    </g>
</svg>
